<svg width="50" height="50" viewBox="0 0 50 50" fill="none" xmlns="http://www.w3.org/2000/svg">
<path d="M39.4167 8.16667H37.3333V6.08333C37.3333 4.83333 36.5 4 35.25 4C34 4 33.1667 4.83333 33.1667 6.08333V8.16667H16.5V6.08333C16.5 4.83333 15.6667 4 14.4167 4C13.1667 4 12.3333 4.83333 12.3333 6.08333V8.16667H10.25C6.70833 8.16667 4 10.875 4 14.4167V16.5H45.6667V14.4167C45.6667 10.875 42.9583 8.16667 39.4167 8.16667ZM4 39.4167C4 42.9583 6.70833 45.6667 10.25 45.6667H39.4167C42.9583 45.6667 45.6667 42.9583 45.6667 39.4167V20.6667H4V39.4167ZM35.25 24.8333C36.5 24.8333 37.3333 25.6667 37.3333 26.9167C37.3333 28.1667 36.5 29 35.25 29C34 29 33.1667 28.1667 33.1667 26.9167C33.1667 25.6667 34 24.8333 35.25 24.8333ZM35.25 33.1667C36.5 33.1667 37.3333 34 37.3333 35.25C37.3333 36.5 36.5 37.3333 35.25 37.3333C34 37.3333 33.1667 36.5 33.1667 35.25C33.1667 34 34 33.1667 35.25 33.1667ZM24.8333 24.8333C26.0833 24.8333 26.9167 25.6667 26.9167 26.9167C26.9167 28.1667 26.0833 29 24.8333 29C23.5833 29 22.75 28.1667 22.75 26.9167C22.75 25.6667 23.5833 24.8333 24.8333 24.8333ZM24.8333 33.1667C26.0833 33.1667 26.9167 34 26.9167 35.25C26.9167 36.5 26.0833 37.3333 24.8333 37.3333C23.5833 37.3333 22.75 36.5 22.75 35.25C22.75 34 23.5833 33.1667 24.8333 33.1667ZM14.4167 24.8333C15.6667 24.8333 16.5 25.6667 16.5 26.9167C16.5 28.1667 15.6667 29 14.4167 29C13.1667 29 12.3333 28.1667 12.3333 26.9167C12.3333 25.6667 13.1667 24.8333 14.4167 24.8333ZM14.4167 33.1667C15.6667 33.1667 16.5 34 16.5 35.25C16.5 36.5 15.6667 37.3333 14.4167 37.3333C13.1667 37.3333 12.3333 36.5 12.3333 35.25C12.3333 34 13.1667 33.1667 14.4167 33.1667Z" fill="#52A447"/>
</svg>
