<svg width="32" height="32" viewBox="0 0 32 32" fill="none" xmlns="http://www.w3.org/2000/svg">
<path d="M15.9993 2C8.26781 2 2 8.26862 2 16C2 23.7322 8.26781 30 15.9993 30C23.7314 30 30 23.7322 30 16C30 8.26862 23.7314 2 15.9993 2ZM24.4851 24.4853C23.8621 25.1089 23.1729 25.6626 22.4297 26.1366L21.4331 24.4103L20.5671 24.9103L21.5643 26.6376C20.0119 27.4519 18.291 27.916 16.5001 27.9891V26H15.5001V27.9891C13.7091 27.9162 11.9881 27.4522 10.4357 26.6378L11.4331 24.9102L10.5671 24.4102L9.57025 26.1368C8.82694 25.6628 8.13766 25.1091 7.51469 24.4853C6.89098 23.8623 6.33724 23.1731 5.86331 22.4298L7.58981 21.4329L7.08981 20.567L5.36225 21.5644C4.54787 20.0119 4.08388 18.291 4.01094 16.5H6V15.5H4.01094C4.08388 13.7091 4.54794 11.9881 5.36237 10.4357L7.08975 11.4331L7.58975 10.5671L5.86331 9.57031C6.33723 8.82713 6.89091 8.13794 7.5145 7.515C8.1375 6.89123 8.8268 6.3374 9.57012 5.86338L10.5669 7.58988L11.4329 7.08988L10.4356 5.36237C11.9881 4.54781 13.7091 4.08375 15.5 4.01094V6H16.5V4.011C18.2909 4.08406 20.0118 4.54819 21.5641 5.36263L20.567 7.08975L21.433 7.58975L22.4296 5.86363C23.1728 6.33758 23.862 6.8913 24.4849 7.51494C25.1087 8.13788 25.6625 8.82712 26.1364 9.57038L24.4102 10.567L24.9102 11.433L26.6375 10.4358C27.4519 11.9882 27.9161 13.7091 27.989 15.4999H26V16.4999H27.989C27.9161 18.2909 27.452 20.0118 26.6376 21.5642L24.9103 20.5669L24.4103 21.4329L26.1366 22.4296C25.6627 23.1729 25.1088 23.8623 24.4851 24.4853Z" fill="#52A447"/>
<path d="M25 15.0625H17.7668C17.5904 14.7313 17.3248 14.4562 17 14.2683V10H15V14.2683C14.4024 14.6141 14 15.2599 14 16C14 17.1046 14.8954 18 16 18C16.7141 18 17.3402 17.6255 17.6941 17.0625H25V15.0625Z" fill="#52A447"/>
</svg>
