<svg width="80" height="80" viewBox="0 0 80 80" fill="none" xmlns="http://www.w3.org/2000/svg">
<g clip-path="url(#clip0_17_40)">
<path d="M17.3334 3.4528e-05H62.6667C64.9442 -0.00451573 67.2002 0.440718 69.3053 1.31019C71.4103 2.17966 73.3229 3.45625 74.9334 5.0667C76.5438 6.67716 77.8204 8.58978 78.6899 10.6948C79.5593 12.7998 80.0046 15.0558 80 17.3334V62.6667C80.0046 64.9442 79.5593 67.2002 78.6899 69.3053C77.8204 71.4103 76.5438 73.3229 74.9334 74.9334C73.3229 76.5438 71.4103 77.8204 69.3053 78.6899C67.2002 79.5593 64.9442 80.0046 62.6667 80H17.3334C15.0558 80.0046 12.7998 79.5593 10.6948 78.6899C8.58978 77.8204 6.67716 76.5438 5.0667 74.9334C3.45625 73.3229 2.17966 71.4103 1.31019 69.3053C0.440718 67.2002 -0.00451573 64.9442 3.4528e-05 62.6667V17.3334C-0.00451573 15.0558 0.440718 12.7998 1.31019 10.6948C2.17966 8.58978 3.45625 6.67716 5.0667 5.0667C6.67716 3.45625 8.58978 2.17966 10.6948 1.31019C12.7998 0.440718 15.0558 -0.00451573 17.3334 3.4528e-05Z" fill="url(#paint0_linear_17_40)"/>
<path d="M25.6667 46.6667C33.5827 46.6667 40 40.2494 40 32.3333C40 24.4173 33.5827 18 25.6667 18C17.7506 18 11.3333 24.4173 11.3333 32.3333C11.3333 40.2494 17.7506 46.6667 25.6667 46.6667Z" fill="url(#paint1_linear_17_40)"/>
<path opacity="0.88" fill-rule="evenodd" clip-rule="evenodd" d="M28.6667 60C26.0405 59.9174 23.5303 58.8986 21.5894 57.1275C19.6486 55.3564 18.4049 52.9497 18.0829 50.342C17.761 47.7343 18.382 45.0974 19.8339 42.9075C21.2857 40.7175 23.4727 39.1188 26 38.4C26.0629 35.1028 27.2878 31.9336 29.4587 29.451C31.6296 26.9685 34.6071 25.3319 37.8665 24.8299C41.1259 24.3278 44.458 24.9925 47.2753 26.7066C50.0926 28.4208 52.2144 31.0745 53.2667 34.2C54.0598 34.0672 54.8625 34.0003 55.6667 34C59.1145 34 62.4211 35.3696 64.8591 37.8076C67.297 40.2456 68.6667 43.5522 68.6667 47C68.6667 50.4478 67.297 53.7544 64.8591 56.1924C62.4211 58.6304 59.1145 60 55.6667 60H28.6667Z" fill="white"/>
</g>
<defs>
<linearGradient id="paint0_linear_17_40" x1="40" y1="3.4528e-05" x2="40" y2="80" gradientUnits="userSpaceOnUse">
<stop stop-color="#1D6FF2"/>
<stop offset="1" stop-color="#1AC8FC"/>
</linearGradient>
<linearGradient id="paint1_linear_17_40" x1="25.6737" y1="17.9943" x2="25.6737" y2="46.661" gradientUnits="userSpaceOnUse">
<stop stop-color="#FFC700"/>
<stop offset="1" stop-color="#FFEA00"/>
</linearGradient>
<clipPath id="clip0_17_40">
<rect width="80" height="80" fill="white"/>
</clipPath>
</defs>
</svg>
