<svg width="41" height="41" viewBox="0 0 41 41" fill="none" xmlns="http://www.w3.org/2000/svg">
<path d="M34.4516 7.06444C36.4042 9.01706 36.4042 12.1829 34.4516 14.1355L15.9854 32.6017C15.1844 33.4027 14.1808 33.9709 13.0819 34.2456L7.35436 35.6775C6.43888 35.9064 5.60964 35.0771 5.83851 34.1617L7.27038 28.4342C7.54512 27.3352 8.11336 26.3316 8.91436 25.5306L27.3805 7.06444C29.3331 5.11182 32.499 5.11182 34.4516 7.06444ZM25.6125 12.3675L10.6821 27.2984C10.2015 27.779 9.86058 28.3811 9.69574 29.0405L8.76915 32.7469L12.4755 31.8203C13.1349 31.6554 13.7371 31.3145 14.2177 30.8339L29.1475 15.9025L25.6125 12.3675ZM29.1483 8.83221L27.38 10.6L30.915 14.135L32.6838 12.3677C33.6601 11.3914 33.6601 9.80852 32.6838 8.83221C31.7075 7.8559 30.1246 7.8559 29.1483 8.83221Z" fill="white"/>
</svg>
