<svg width="40" height="40" viewBox="0 0 40 40" fill="none" xmlns="http://www.w3.org/2000/svg">
<g clip-path="url(#clip0_36_304)">
<path d="M36.875 5H36.8594C36.8655 4.89586 36.875 4.79219 36.875 4.6875C36.875 2.4475 35.473 0.625 33.75 0.625C32.027 0.625 30.625 2.4475 30.625 4.6875C30.625 4.79297 30.6311 4.89648 30.6372 5H29.3594C29.3655 4.89586 29.375 4.79219 29.375 4.6875C29.375 2.4475 27.973 0.625 26.25 0.625C24.527 0.625 23.125 2.4475 23.125 4.6875C23.125 4.79297 23.1311 4.89648 23.1372 5H21.8594C21.8655 4.89586 21.875 4.79219 21.875 4.6875C21.875 2.4475 20.473 0.625 18.75 0.625C17.027 0.625 15.625 2.4475 15.625 4.6875C15.625 4.79297 15.6311 4.89648 15.6372 5H14.3594C14.3655 4.89586 14.375 4.79219 14.375 4.6875C14.375 2.4475 12.973 0.625 11.25 0.625C9.52695 0.625 8.125 2.4475 8.125 4.6875C8.125 4.79297 8.13109 4.89648 8.13719 5H8.125C6.40195 5 5 6.40195 5 8.125V22.848C2.03977 24.341 0 27.4021 0 30.9375C0 35.9345 4.06555 40 9.0625 40C14.0595 40 18.125 35.9345 18.125 30.9375C18.125 30.832 18.1127 30.7296 18.1091 30.625H36.875C38.598 30.625 40 29.223 40 27.5V8.125C40 6.40195 38.598 5 36.875 5ZM31.875 4.6875C31.875 3.16281 32.7337 1.875 33.75 1.875C34.7663 1.875 35.625 3.16281 35.625 4.6875C35.625 4.79242 35.6173 4.89625 35.6095 5H31.8968C31.8886 4.89602 31.875 4.79414 31.875 4.6875ZM24.375 4.6875C24.375 3.16281 25.2337 1.875 26.25 1.875C27.2663 1.875 28.125 3.16281 28.125 4.6875C28.125 4.79242 28.1173 4.89625 28.1095 5H24.3968C24.3886 4.89602 24.375 4.79414 24.375 4.6875ZM16.875 4.6875C16.875 3.16281 17.7337 1.875 18.75 1.875C19.7663 1.875 20.625 3.16281 20.625 4.6875C20.625 4.79242 20.6173 4.89625 20.6095 5H16.8968C16.8886 4.89602 16.875 4.79414 16.875 4.6875ZM9.375 4.6875C9.375 3.16281 10.2337 1.875 11.25 1.875C12.2663 1.875 13.125 3.16281 13.125 4.6875C13.125 4.79242 13.1173 4.89625 13.1095 5H9.3968C9.38859 4.89602 9.375 4.79414 9.375 4.6875ZM8.125 6.25H8.36609C8.83812 7.71656 9.95281 8.75 11.25 8.75C11.5955 8.75 11.875 8.47047 11.875 8.125C11.875 7.77953 11.5955 7.5 11.25 7.5C10.6156 7.5 10.0428 6.99797 9.7018 6.25H15.8661C16.3381 7.71656 17.4528 8.75 18.75 8.75C19.0955 8.75 19.375 8.47047 19.375 8.125C19.375 7.77953 19.0955 7.5 18.75 7.5C18.1156 7.5 17.5428 6.99797 17.2018 6.25H23.3661C23.8381 7.71656 24.9528 8.75 26.25 8.75C26.5955 8.75 26.875 8.47047 26.875 8.125C26.875 7.77953 26.5955 7.5 26.25 7.5C25.6156 7.5 25.0428 6.99797 24.7018 6.25H30.8661C31.3381 7.71656 32.4528 8.75 33.75 8.75C34.0955 8.75 34.375 8.47047 34.375 8.125C34.375 7.77953 34.0955 7.5 33.75 7.5C33.1156 7.5 32.5428 6.99797 32.2018 6.25H36.875C37.9089 6.25 38.75 7.09109 38.75 8.125V10H6.25V8.125C6.25 7.09109 7.09109 6.25 8.125 6.25ZM9.0625 38.75C4.75461 38.75 1.25 35.2454 1.25 30.9375C1.25 26.6296 4.75461 23.125 9.0625 23.125C13.3704 23.125 16.875 26.6296 16.875 30.9375C16.875 35.2454 13.3704 38.75 9.0625 38.75ZM9.0625 21.875C8.08031 21.875 7.13641 22.037 6.25 22.3274V11.25H38.75V22.5H34.375C32.652 22.5 31.25 23.902 31.25 25.625V29.375H17.9805C17.2368 25.1214 13.5257 21.875 9.0625 21.875ZM37.7686 23.75L32.5 28.5791V25.625C32.5 24.5911 33.3411 23.75 34.375 23.75H37.7686ZM36.875 29.375H33.4819L38.75 24.5459V27.5C38.75 28.5339 37.9089 29.375 36.875 29.375Z" fill="#52A447"/>
<path d="M23.125 18.125H19.375C19.0295 18.125 18.75 18.4045 18.75 18.75V21.875C18.75 22.2205 19.0295 22.5 19.375 22.5H23.125C23.4705 22.5 23.75 22.2205 23.75 21.875V18.75C23.75 18.4045 23.4705 18.125 23.125 18.125ZM22.5 21.25H20V19.375H22.5V21.25ZM23.125 12.5H19.375C19.0295 12.5 18.75 12.7795 18.75 13.125V16.25C18.75 16.5955 19.0295 16.875 19.375 16.875H23.125C23.4705 16.875 23.75 16.5955 23.75 16.25V13.125C23.75 12.7795 23.4705 12.5 23.125 12.5ZM22.5 15.625H20V13.75H22.5V15.625ZM16.875 12.5H13.125C12.7795 12.5 12.5 12.7795 12.5 13.125V16.25C12.5 16.5955 12.7795 16.875 13.125 16.875H16.875C17.2205 16.875 17.5 16.5955 17.5 16.25V13.125C17.5 12.7795 17.2205 12.5 16.875 12.5ZM16.25 15.625H13.75V13.75H16.25V15.625ZM29.375 18.125H25.625C25.2795 18.125 25 18.4045 25 18.75V21.875C25 22.2205 25.2795 22.5 25.625 22.5H29.375C29.7205 22.5 30 22.2205 30 21.875V18.75C30 18.4045 29.7205 18.125 29.375 18.125ZM28.75 21.25H26.25V19.375H28.75V21.25ZM29.375 12.5H25.625C25.2795 12.5 25 12.7795 25 13.125V16.25C25 16.5955 25.2795 16.875 25.625 16.875H29.375C29.7205 16.875 30 16.5955 30 16.25V13.125C30 12.7795 29.7205 12.5 29.375 12.5ZM28.75 15.625H26.25V13.75H28.75V15.625ZM31.875 16.875H35.625C35.9705 16.875 36.25 16.5955 36.25 16.25V13.125C36.25 12.7795 35.9705 12.5 35.625 12.5H31.875C31.5295 12.5 31.25 12.7795 31.25 13.125V16.25C31.25 16.5955 31.5295 16.875 31.875 16.875ZM32.5 13.75H35V15.625H32.5V13.75ZM29.375 23.75H25.625C25.2795 23.75 25 24.0295 25 24.375V27.5C25 27.8455 25.2795 28.125 25.625 28.125H29.375C29.7205 28.125 30 27.8455 30 27.5V24.375C30 24.0295 29.7205 23.75 29.375 23.75ZM28.75 26.875H26.25V25H28.75V26.875ZM16.875 18.125H13.125C12.7795 18.125 12.5 18.4045 12.5 18.75V21.875C12.5 22.2205 12.7795 22.5 13.125 22.5H16.875C17.2205 22.5 17.5 22.2205 17.5 21.875V18.75C17.5 18.4045 17.2205 18.125 16.875 18.125ZM16.25 21.25H13.75V19.375H16.25V21.25ZM23.125 23.75H19.375C19.0295 23.75 18.75 24.0295 18.75 24.375V27.5C18.75 27.8455 19.0295 28.125 19.375 28.125H23.125C23.4705 28.125 23.75 27.8455 23.75 27.5V24.375C23.75 24.0295 23.4705 23.75 23.125 23.75ZM22.5 26.875H20V25H22.5V26.875ZM9.0625 24.375C5.44375 24.375 2.5 27.3188 2.5 30.9375C2.5 34.5562 5.44375 37.5 9.0625 37.5C12.6812 37.5 15.625 34.5562 15.625 30.9375C15.625 27.3188 12.6812 24.375 9.0625 24.375ZM9.6875 36.2098V35.1861C9.6875 34.8406 9.40797 34.5611 9.0625 34.5611C8.71703 34.5611 8.4375 34.8406 8.4375 35.1861V36.2098C6.00773 35.9233 4.07672 33.9923 3.79016 31.5625H4.81391C5.15937 31.5625 5.43891 31.283 5.43891 30.9375C5.43891 30.592 5.15937 30.3125 4.81391 30.3125H3.79016C4.07672 27.8827 6.00773 25.9517 8.4375 25.6652V26.6889C8.4375 27.0344 8.71703 27.3139 9.0625 27.3139C9.40797 27.3139 9.6875 27.0344 9.6875 26.6889V25.6652C12.1173 25.9517 14.0483 27.8827 14.3348 30.3125H13.3111C12.9656 30.3125 12.6861 30.592 12.6861 30.9375C12.6861 31.283 12.9656 31.5625 13.3111 31.5625H14.3348C14.0483 33.9923 12.1173 35.9233 9.6875 36.2098Z" fill="#52A447"/>
<path d="M9.6875 30.6788V28.8398C9.6875 28.4943 9.40797 28.2148 9.0625 28.2148C8.71703 28.2148 8.4375 28.4943 8.4375 28.8398V30.9375C8.4375 31.1035 8.50344 31.2622 8.62063 31.3794L10.6885 33.4473C10.8105 33.5693 10.9705 33.6304 11.1304 33.6304C11.2903 33.6304 11.4502 33.5694 11.5723 33.4473C11.8164 33.2031 11.8164 32.8076 11.5723 32.5635L9.6875 30.6788Z" fill="#52A447"/>
</g>
<defs>
<clipPath id="clip0_36_304">
<rect width="40" height="40" fill="white"/>
</clipPath>
</defs>
</svg>
