<svg width="32" height="32" viewBox="0 0 32 32" fill="none" xmlns="http://www.w3.org/2000/svg">
<path d="M30.4808 1.00041C30.3513 1.00453 30.2285 1.05878 30.1382 1.15171L28.2037 3.08642C27.9757 3.1125 27.3464 3.19115 26.4624 3.42807C25.399 3.71307 24.116 4.1836 23.2277 5.07189C22.4023 5.89736 21.9434 6.71172 21.8251 7.49272C21.7345 8.09141 21.8676 8.66128 22.1648 9.1258L21.0863 10.2044C21.2587 9.11608 21.0494 7.96463 20.7993 7.031C20.602 6.29462 20.4118 5.80263 20.2869 5.49847L22.0887 3.69358C22.4116 3.37596 22.1794 2.82692 21.7265 2.83751C21.597 2.84163 21.4742 2.89587 21.3839 2.98881L19.3782 4.99575C19.333 5.02823 18.6743 5.50443 17.9219 6.25693C17.1434 7.03547 16.2666 8.08709 15.9415 9.30053C15.6393 10.4281 15.6456 11.3646 15.9337 12.1001C16.2217 12.8356 16.8163 13.3368 17.5158 13.5243C17.5846 13.5427 17.6539 13.5551 17.7237 13.5672L15.5686 15.7226C15.7417 14.6336 15.5329 13.4814 15.2826 12.5472C14.9977 11.4837 14.6374 10.6886 14.6374 10.6886C14.552 10.501 14.3601 10.3851 14.1543 10.3967C14.0599 10.4019 13.9688 10.4337 13.8917 10.4885C13.8917 10.4885 13.1836 10.9945 12.4052 11.7731C11.6268 12.5516 10.7499 13.6033 10.4248 14.8167C10.1227 15.9443 10.1289 16.8808 10.417 17.6163C10.705 18.3518 11.2996 18.853 11.9992 19.0405C12.0679 19.059 12.1381 19.0713 12.208 19.0834L10.1339 21.1577C10.307 20.0687 10.0982 18.9165 9.84793 17.9823C9.56304 16.9188 9.20276 16.1238 9.20276 16.1238C9.11731 15.9361 8.92544 15.8202 8.71961 15.8319C8.62517 15.837 8.53413 15.8688 8.45705 15.9236C8.45705 15.9236 7.74896 16.4297 6.97052 17.2082C6.19208 17.9868 5.31523 19.0384 4.9901 20.2518C4.68797 21.3795 4.69424 22.3159 4.9823 23.0514C5.27035 23.7869 5.8649 24.2882 6.56448 24.4756C6.63359 24.4941 6.70411 24.5064 6.77434 24.5186L1.16397 30.1284C0.671459 30.6008 1.40095 31.3293 1.87259 30.8361L7.481 25.2272C7.49309 25.2968 7.5056 25.3667 7.52395 25.4351C7.7114 26.1348 8.21256 26.7294 8.94801 27.0175C9.68347 27.3055 10.6208 27.3127 11.7483 27.0107C12.9617 26.6855 14.0131 25.8075 14.7917 25.0291C15.5702 24.2506 16.0752 23.5424 16.0752 23.5424C16.2575 23.2867 16.1616 22.9282 15.8761 22.7976C15.8761 22.7976 15.0801 22.4363 14.0167 22.1514C13.352 21.9733 12.5772 21.8166 11.7932 21.8029C11.4743 21.7974 11.1546 21.818 10.8396 21.8683L12.9157 19.7921C12.9278 19.8617 12.9403 19.9315 12.9586 20C13.1461 20.6996 13.6472 21.2943 14.3827 21.5823C15.1182 21.8704 16.0554 21.8776 17.183 21.5755C18.3964 21.2504 19.4478 20.3724 20.2263 19.594C21.0048 18.8155 21.5099 18.1073 21.5099 18.1073C21.6922 17.8516 21.5964 17.493 21.3107 17.3625C21.3107 17.3625 20.5148 17.0012 19.4514 16.7163C18.7867 16.5382 18.0119 16.3814 17.2279 16.3678C16.909 16.3622 16.5893 16.3829 16.2743 16.4332L18.4314 14.2759C18.4435 14.3455 18.4569 14.4153 18.4753 14.4838C18.6628 15.1834 19.1639 15.7781 19.8994 16.0662C20.6348 16.3542 21.5721 16.3615 22.6997 16.0593C23.913 15.7342 24.9645 14.8562 25.743 14.0778C26.4803 13.3405 26.9394 12.7083 26.9894 12.6389L29.0128 10.6154C29.3369 10.2968 29.102 9.74596 28.6478 9.75931C28.5179 9.76319 28.3947 9.81745 28.3042 9.91061L26.5014 11.7135C26.1973 11.5884 25.7051 11.3976 24.968 11.2001C24.3034 11.022 23.5286 10.8653 22.7446 10.8516C22.4256 10.8461 22.105 10.8667 21.79 10.917L22.8724 9.83448C23.338 10.1329 23.9104 10.2678 24.5093 10.1771C25.2902 10.0588 26.1015 9.59693 26.927 8.77146C27.8152 7.88317 28.2847 6.59901 28.5697 5.53556C28.8087 4.64357 28.8896 4.00818 28.9152 3.78827L30.8458 1.86039C31.1771 1.54217 30.9398 0.983086 30.4808 1.00041ZM25.1896 1.34694C25.1877 1.34726 25.1856 1.34758 25.1837 1.34792C25.054 1.35153 24.9308 1.40543 24.8402 1.49824L23.7811 2.55735C23.3079 3.0298 24.0165 3.73848 24.4898 3.26603L25.5488 2.20692C25.8777 1.89067 25.6457 1.33526 25.1896 1.34694ZM29.78 6.43461L28.7181 7.4976C28.2071 7.96905 28.9564 8.71531 29.4257 8.20237L30.4847 7.14326C30.8136 6.82701 30.5816 6.2716 30.1246 6.28378C29.9939 6.2879 29.8707 6.3418 29.78 6.43461Z" fill="#52A447"/>
</svg>
