<svg width="50" height="50" viewBox="0 0 50 50" fill="none" xmlns="http://www.w3.org/2000/svg">
<rect width="50" height="50" fill="none"/>
<path d="M41.0714 27.6786V41.0714C41.0714 41.555 40.8947 41.9736 40.5413 42.327C40.1879 42.6804 39.7693 42.8571 39.2857 42.8571H28.5714V32.1428H21.4286V42.8571H10.7143C10.2307 42.8571 9.81212 42.6804 9.4587 42.327C9.10528 41.9736 8.92857 41.555 8.92857 41.0714V27.6786C8.92857 27.66 8.93322 27.6321 8.94252 27.5949C8.95182 27.5577 8.95647 27.5298 8.95647 27.5112L25 14.2857L41.0435 27.5112C41.0621 27.5484 41.0714 27.6042 41.0714 27.6786ZM47.2935 25.7533L45.5636 27.8181C45.4148 27.9855 45.2195 28.0878 44.9777 28.125H44.894C44.6521 28.125 44.4568 28.0599 44.308 27.9297L25 11.8303L5.69196 27.9297C5.46875 28.0785 5.24553 28.1436 5.02232 28.125C4.7805 28.0878 4.58519 27.9855 4.43638 27.8181L2.70647 25.7533C2.55766 25.5673 2.49256 25.3488 2.51116 25.0976C2.52976 24.8465 2.63206 24.6466 2.81808 24.4978L22.8795 7.78459C23.4747 7.30096 24.1815 7.05914 25 7.05914C25.8184 7.05914 26.5253 7.30096 27.1205 7.78459L33.9286 13.4766V8.03571C33.9286 7.77529 34.0123 7.56138 34.1797 7.39396C34.3471 7.22655 34.561 7.14285 34.8214 7.14285H40.1786C40.439 7.14285 40.6529 7.22655 40.8203 7.39396C40.9877 7.56138 41.0714 7.77529 41.0714 8.03571V19.4196L47.1819 24.4978C47.3679 24.6466 47.4702 24.8465 47.4888 25.0976C47.5074 25.3488 47.4423 25.5673 47.2935 25.7533Z" fill="#677079"/>
</svg>
