<svg width="25" height="25" viewBox="0 0 25 25" fill="none" xmlns="http://www.w3.org/2000/svg">
<path d="M18.3711 3.90624C18.2313 3.90542 18.0935 3.93881 17.9695 4.0035C17.8456 4.06818 17.7394 4.16219 17.6602 4.27733C17.3828 4.67186 16.9844 5.25389 16.5391 5.94139C15.3867 4.0742 14.25 2.40233 13.4766 1.28905C13.3665 1.13221 13.2203 1.00419 13.0503 0.915808C12.8804 0.827424 12.6916 0.781281 12.5 0.781281C12.3084 0.781281 12.1196 0.827424 11.9497 0.915808C11.7797 1.00419 11.6335 1.13221 11.5234 1.28905C9.30859 4.45702 4.16016 12.2187 4.16016 15.8789C4.16008 17.9365 4.92075 19.9215 6.29588 21.4522C7.671 22.9829 9.56349 23.9511 11.6094 24.1706C13.6553 24.3902 15.7101 23.8456 17.3787 22.6416C19.0473 21.4376 20.2119 19.6592 20.6484 17.6484C21.5021 17.2238 22.2206 16.5698 22.7235 15.7599C23.2265 14.9499 23.494 14.0159 23.4961 13.0625C23.4961 10.832 20.4102 6.17577 19.082 4.27733C19.0022 4.16281 18.8958 4.06927 18.772 4.00466C18.6483 3.94006 18.5107 3.90629 18.3711 3.90624ZM12.5 23.4375C10.496 23.4353 8.57471 22.6383 7.15767 21.2212C5.74062 19.8042 4.94358 17.8829 4.94141 15.8789C4.94141 12.3437 10.4688 4.16014 12.1641 1.73827C12.2023 1.68481 12.2527 1.64123 12.3111 1.61117C12.3695 1.58111 12.4343 1.56543 12.5 1.56543C12.5657 1.56543 12.6305 1.58111 12.6889 1.61117C12.7473 1.64123 12.7977 1.68481 12.8359 1.73827C14.5312 4.16014 20.0586 12.3437 20.0586 15.8789C20.0564 17.8829 19.2594 19.8042 17.8423 21.2212C16.4253 22.6383 14.504 23.4353 12.5 23.4375Z" fill="#52A447"/>
<path d="M15.7125 9.14062C15.7467 9.20059 15.7961 9.25044 15.8558 9.28509C15.9155 9.31975 15.9833 9.33796 16.0523 9.33788C16.1201 9.338 16.1867 9.32021 16.2453 9.28632C16.3352 9.23505 16.4011 9.15017 16.4285 9.05034C16.4559 8.95051 16.4426 8.84389 16.3914 8.7539C15.8971 7.88918 15.3849 7.03483 14.8551 6.1914C14.8001 6.10334 14.7123 6.04074 14.6112 6.01737C14.51 5.994 14.4037 6.01178 14.3156 6.06679C14.2276 6.1218 14.165 6.20954 14.1416 6.31071C14.1182 6.41188 14.136 6.51818 14.191 6.60624C14.7161 7.44013 15.2234 8.28511 15.7125 9.14062ZM11.4766 12.5508C11.0556 12.2873 10.5668 12.1528 10.0703 12.1641C9.57506 12.1527 9.08741 12.2872 8.66797 12.5508C8.42027 12.6978 8.14403 12.7902 7.85772 12.8219C7.57142 12.8536 7.28165 12.8237 7.00781 12.7344C6.96062 12.7154 6.91015 12.7058 6.85927 12.7063C6.8084 12.7068 6.75813 12.7174 6.71133 12.7373C6.66452 12.7573 6.62212 12.7863 6.58653 12.8226C6.55094 12.859 6.52286 12.902 6.50391 12.9492C6.0682 13.8704 5.80348 14.8631 5.72266 15.8789C5.72266 17.6764 6.4367 19.4002 7.70769 20.6712C8.97869 21.9422 10.7025 22.6562 12.5 22.6562C14.2975 22.6562 16.0213 21.9422 17.2923 20.6712C18.5633 19.4002 19.2773 17.6764 19.2773 15.8789C19.1948 14.8617 18.9288 13.8678 18.4922 12.9453C18.4532 12.8515 18.3791 12.7766 18.2858 12.7365C18.1924 12.6964 18.0871 12.6942 17.9922 12.7305C17.7177 12.8226 17.4264 12.8542 17.1385 12.8232C16.8506 12.7922 16.5728 12.6992 16.3242 12.5508C15.8995 12.2977 15.4143 12.164 14.9199 12.164C14.4255 12.164 13.9403 12.2977 13.5156 12.5508C13.2083 12.7373 12.8556 12.8359 12.4961 12.8359C12.1366 12.8359 11.7839 12.7373 11.4766 12.5508ZM10.9375 14.8437C11.1693 14.8437 11.3958 14.9125 11.5886 15.0412C11.7813 15.17 11.9315 15.353 12.0202 15.5672C12.1089 15.7813 12.1321 16.0169 12.0869 16.2442C12.0416 16.4716 11.93 16.6804 11.7661 16.8443C11.6023 17.0081 11.3934 17.1198 11.1661 17.165C10.9388 17.2102 10.7032 17.187 10.489 17.0983C10.2749 17.0096 10.0919 16.8594 9.96312 16.6667C9.83435 16.474 9.76562 16.2474 9.76562 16.0156C9.76655 15.7051 9.89032 15.4076 10.1099 15.188C10.3295 14.9684 10.627 14.8447 10.9375 14.8437ZM14.0625 19.9219C13.8307 19.9219 13.6042 19.8531 13.4114 19.7244C13.2187 19.5956 13.0685 19.4126 12.9798 19.1984C12.8911 18.9843 12.8679 18.7487 12.9131 18.5214C12.9584 18.2941 13.07 18.0852 13.2339 17.9214C13.3977 17.7575 13.6066 17.6459 13.8339 17.6006C14.0612 17.5554 14.2968 17.5786 14.511 17.6673C14.7251 17.756 14.9081 17.9062 15.0369 18.0989C15.1656 18.2916 15.2344 18.5182 15.2344 18.75C15.2334 19.0605 15.1097 19.358 14.8901 19.5776C14.6705 19.7972 14.373 19.9209 14.0625 19.9219ZM14.5781 14.9453C14.6161 14.9104 14.6605 14.8834 14.709 14.8657C14.7574 14.848 14.8088 14.84 14.8603 14.8421C14.9118 14.8443 14.9624 14.8566 15.0092 14.8783C15.0559 14.9001 15.0979 14.9308 15.1328 14.9687C15.1677 15.0067 15.1948 15.0512 15.2125 15.0996C15.2302 15.148 15.2382 15.1994 15.236 15.2509C15.2338 15.3024 15.2215 15.353 15.1998 15.3998C15.1781 15.4465 15.1473 15.4885 15.1094 15.5234L10.4219 19.8203C10.3452 19.8908 10.2437 19.9279 10.1397 19.9235C10.0357 19.9191 9.93764 19.8735 9.86719 19.7969C9.79674 19.7202 9.75963 19.6187 9.76403 19.5147C9.76842 19.4106 9.81396 19.3126 9.89062 19.2422L14.5781 14.9453Z" fill="#52A447"/>
<path d="M10.9375 16.4062C11.1532 16.4062 11.3281 16.2314 11.3281 16.0156C11.3281 15.7999 11.1532 15.625 10.9375 15.625C10.7218 15.625 10.5469 15.7999 10.5469 16.0156C10.5469 16.2314 10.7218 16.4062 10.9375 16.4062Z" fill="#52A447"/>
<path d="M14.0625 19.1406C14.2782 19.1406 14.4531 18.9657 14.4531 18.75C14.4531 18.5343 14.2782 18.3594 14.0625 18.3594C13.8468 18.3594 13.6719 18.5343 13.6719 18.75C13.6719 18.9657 13.8468 19.1406 14.0625 19.1406Z" fill="#52A447"/>
<path d="M16.7969 10.5469C17.0126 10.5469 17.1875 10.372 17.1875 10.1562C17.1875 9.94051 17.0126 9.76562 16.7969 9.76562C16.5811 9.76562 16.4062 9.94051 16.4062 10.1562C16.4062 10.372 16.5811 10.5469 16.7969 10.5469Z" fill="#52A447"/>
</svg>
