<svg width="32" height="32" viewBox="0 0 32 32" fill="none" xmlns="http://www.w3.org/2000/svg">
<g clip-path="url(#clip0_45_492)">
<path d="M1 9.00012H25L29 17.0001L25 25.0001H1V9.00012Z" fill="#C8F8C2"/>
<path d="M1 7.99792C0.734784 7.99792 0.48043 8.10336 0.292893 8.29089C0.105357 8.47843 0 8.73271 0 8.99792L0 24.9979C0 25.2631 0.105357 25.5177 0.292893 25.7052C0.48043 25.8927 0.734784 25.9979 1 25.9979H25C25.1853 25.9981 25.3671 25.9469 25.525 25.8497C25.6828 25.7526 25.8106 25.6136 25.894 25.4481L29.894 17.4481C29.9634 17.3093 29.9995 17.1563 29.9995 17.0011C29.9995 16.8459 29.9634 16.6929 29.894 16.5541L25.894 8.55408C25.8114 8.38744 25.684 8.24702 25.5261 8.1488C25.3682 8.05059 25.186 7.9983 25 7.99792H1ZM2 9.99792H24.382L27.882 16.9979L24.382 23.9979H2V9.99792Z" fill="#52A447"/>
<path d="M24 17.0001C24 17.5306 23.7893 18.0391 23.4142 18.4142C23.0391 18.7893 22.5304 19.0001 22 19.0001C21.4696 19.0001 20.9609 18.7893 20.5858 18.4142C20.2107 18.0391 20 17.5306 20 17.0001C20 16.4697 20.2107 15.9609 20.5858 15.5858C20.9609 15.2107 21.4696 15.0001 22 15.0001C22.5304 15.0001 23.0391 15.2107 23.4142 15.5858C23.7893 15.9609 24 16.4697 24 17.0001Z" fill="white"/>
<path d="M22 13.9979C20.354 13.9979 19 15.3539 19 16.9979C19 18.6439 20.354 19.9979 22 19.9979C23.646 19.9979 25 18.6439 25 16.9979C25 15.3539 23.646 13.9979 22 13.9979ZM22 15.9979C22.564 15.9979 23 16.4339 23 16.9979C23 17.5619 22.564 17.9979 22 17.9979C21.8682 17.9998 21.7373 17.9752 21.6151 17.9257C21.4929 17.8761 21.3819 17.8026 21.2887 17.7094C21.1955 17.6161 21.1219 17.5051 21.0723 17.3829C21.0227 17.2608 20.9981 17.1298 21 16.9979C21 16.4339 21.436 15.9979 22 15.9979Z" fill="#52A447"/>
</g>
<defs>
<clipPath id="clip0_45_492">
<rect width="32" height="32" fill="white"/>
</clipPath>
</defs>
</svg>
