<svg width="32" height="32" viewBox="0 0 32 32" fill="none" xmlns="http://www.w3.org/2000/svg">
<path d="M16 2.66667C13.1711 2.66667 10.458 3.79048 8.45757 5.79087C6.45718 7.79125 5.33337 10.5044 5.33337 13.3333C5.33337 20.5333 14.7334 28.6667 15.1334 29.0133C15.3749 29.2199 15.6822 29.3334 16 29.3334C16.3178 29.3334 16.6252 29.2199 16.8667 29.0133C17.3334 28.6667 26.6667 20.5333 26.6667 13.3333C26.6667 10.5044 25.5429 7.79125 23.5425 5.79087C21.5421 3.79048 18.829 2.66667 16 2.66667ZM16 26.2C13.16 23.5333 8.00004 17.7867 8.00004 13.3333C8.00004 11.2116 8.8429 9.17678 10.3432 7.67648C11.8435 6.17619 13.8783 5.33334 16 5.33334C18.1218 5.33334 20.1566 6.17619 21.6569 7.67648C23.1572 9.17678 24 11.2116 24 13.3333C24 17.7867 18.84 23.5467 16 26.2ZM16 8.00001C14.9452 8.00001 13.9141 8.3128 13.037 8.89883C12.1599 9.48487 11.4764 10.3178 11.0727 11.2924C10.669 12.2669 10.5634 13.3393 10.7692 14.3738C10.975 15.4084 11.4829 16.3587 12.2288 17.1046C12.9747 17.8505 13.925 18.3584 14.9596 18.5642C15.9941 18.77 17.0665 18.6644 18.041 18.2607C19.0156 17.857 19.8485 17.1734 20.4345 16.2964C21.0206 15.4193 21.3334 14.3882 21.3334 13.3333C21.3334 11.9189 20.7715 10.5623 19.7713 9.5621C18.7711 8.56191 17.4145 8.00001 16 8.00001ZM16 16C15.4726 16 14.9571 15.8436 14.5185 15.5506C14.08 15.2576 13.7382 14.8411 13.5364 14.3538C13.3345 13.8666 13.2817 13.3304 13.3846 12.8131C13.4875 12.2958 13.7415 11.8207 14.1144 11.4477C14.4874 11.0748 14.9625 10.8208 15.4798 10.7179C15.9971 10.615 16.5333 10.6678 17.0205 10.8697C17.5078 11.0715 17.9243 11.4133 18.2173 11.8518C18.5103 12.2903 18.6667 12.8059 18.6667 13.3333C18.6667 14.0406 18.3858 14.7189 17.8857 15.219C17.3856 15.7191 16.7073 16 16 16Z" fill="#52A447"/>
</svg>
