<svg width="30" height="30" viewBox="0 0 30 30" fill="none" xmlns="http://www.w3.org/2000/svg">
<g clip-path="url(#clip0_36_229)">
<path fill-rule="evenodd" clip-rule="evenodd" d="M27 25.5135C27 26.34 26.26 27 25.4329 27H20.9329C20.7449 27.0046 20.558 26.9695 20.3833 26.8967C20.2086 26.8238 20.0497 26.7148 19.9159 26.5761C19.7822 26.4374 19.6765 26.2718 19.605 26.0892C19.5336 25.9067 19.4978 25.7109 19.5 25.5135V21.0135C19.4971 20.8147 19.5322 20.6173 19.6031 20.4329C19.6739 20.2485 19.7792 20.0808 19.9128 19.9398C20.0463 19.7988 20.2053 19.6872 20.3805 19.6117C20.5557 19.5361 20.7435 19.4982 20.9329 19.5H25.4329C26.2614 19.5 27 20.187 27 21.0135V25.5135ZM25.4329 16.5H20.9329C18.4471 16.5 16.5 18.528 16.5 21.0135V25.5135C16.5 27.999 18.4471 30 20.9329 30H25.4329C27.9186 30 30 27.999 30 25.5135V21.0135C30 18.528 27.9186 16.5 25.4329 16.5ZM10.5 25.5135C10.5 26.34 9.76 27 8.93286 27H4.43286C4.24493 27.0046 4.05804 26.9695 3.88332 26.8967C3.70861 26.8238 3.54965 26.7148 3.41593 26.5761C3.28221 26.4374 3.17647 26.2718 3.10501 26.0892C3.03355 25.9067 2.99784 25.7109 3 25.5135V21.0135C2.99713 20.8147 3.03218 20.6173 3.10306 20.4329C3.17395 20.2485 3.27924 20.0808 3.41276 19.9398C3.54627 19.7988 3.7053 19.6872 3.88049 19.6117C4.05568 19.5361 4.24348 19.4982 4.43286 19.5H8.93286C9.76143 19.5 10.5 20.187 10.5 21.0135V25.5135ZM8.93286 16.5H4.43286C1.94714 16.5 0 18.528 0 21.0135V25.5135C0 27.999 1.94714 30 4.43286 30H8.93286C11.4186 30 13.5 27.999 13.5 25.5135V21.0135C13.5 18.528 11.4186 16.5 8.93286 16.5ZM27 9.0135C27 9.84 26.26 10.5 25.4329 10.5H20.9329C20.7449 10.5046 20.558 10.4695 20.3833 10.3967C20.2086 10.3238 20.0497 10.2148 19.9159 10.0761C19.7822 9.93737 19.6765 9.77179 19.605 9.58923C19.5336 9.40667 19.4978 9.21087 19.5 9.0135V4.5135C19.4971 4.31467 19.5322 4.11725 19.6031 3.93286C19.6739 3.74846 19.7792 3.58082 19.9128 3.43979C20.0463 3.29876 20.2053 3.1872 20.3805 3.11167C20.5557 3.03615 20.7435 2.99818 20.9329 3H25.4329C26.2614 3 27 3.687 27 4.5135V9.0135ZM25.4329 0H20.9329C18.4471 0 16.5 2.028 16.5 4.5135V9.0135C16.5 11.499 18.4471 13.5 20.9329 13.5H25.4329C27.9186 13.5 30 11.499 30 9.0135V4.5135C30 2.028 27.9186 0 25.4329 0ZM10.5 9.0135C10.5 9.84 9.76 10.5 8.93286 10.5H4.43286C4.24493 10.5046 4.05804 10.4695 3.88332 10.3967C3.70861 10.3238 3.54965 10.2148 3.41593 10.0761C3.28221 9.93737 3.17647 9.77179 3.10501 9.58923C3.03355 9.40667 2.99784 9.21087 3 9.0135V4.5135C2.99713 4.31467 3.03218 4.11725 3.10306 3.93286C3.17395 3.74846 3.27924 3.58082 3.41276 3.43979C3.54627 3.29876 3.7053 3.1872 3.88049 3.11167C4.05568 3.03615 4.24348 2.99818 4.43286 3H8.93286C9.76143 3 10.5 3.687 10.5 4.5135V9.0135ZM8.93286 0H4.43286C1.94714 0 0 2.028 0 4.5135V9.0135C0 11.499 1.94714 13.5 4.43286 13.5H8.93286C11.4186 13.5 13.5 11.499 13.5 9.0135V4.5135C13.5 2.028 11.4186 0 8.93286 0Z" fill="#52A447"/>
</g>
<defs>
<clipPath id="clip0_36_229">
<rect width="30" height="30" fill="white"/>
</clipPath>
</defs>
</svg>
