<svg width="40" height="40" viewBox="0 0 40 40" fill="none" xmlns="http://www.w3.org/2000/svg">
<g clip-path="url(#clip0_72_128)">
<path d="M36.5859 16.6172H23.8438V3.41406C23.8438 1.52344 22.3125 -0.0078125 20.4219 -0.0078125C18.5312 -0.0078125 17 1.52344 17 3.41406V16.6172H3.40625C1.53125 16.6172 0 18.1484 0 20.0391C0 21.9297 1.53125 23.4609 3.42188 23.4609H17.0156V36.5859C17.0156 38.4766 18.5469 40.0078 20.4375 40.0078C22.3281 40.0078 23.8594 38.4766 23.8594 36.5859V23.4609H36.6016C38.4922 23.4609 40.0234 21.9297 40.0234 20.0391C40 18.1484 38.4766 16.6172 36.5859 16.6172Z" fill="white"/>
</g>
<defs>
<clipPath id="clip0_72_128">
<rect width="40" height="40" fill="white"/>
</clipPath>
</defs>
</svg>
