<svg width="32" height="32" viewBox="0 0 32 32" fill="none" xmlns="http://www.w3.org/2000/svg">
<path d="M27 24.24L26.64 22.79C25.509 24.6158 23.9478 26.1366 22.0929 27.2192C20.238 28.3018 18.146 28.9133 16 29C12.8174 29 9.76515 27.7357 7.51472 25.4853C5.26428 23.2348 4 20.1826 4 17H6C6 19.6522 7.05357 22.1957 8.92893 24.0711C10.8043 25.9464 13.3478 27 16 27C17.8587 26.9185 19.6673 26.3724 21.2605 25.4116C22.8537 24.4508 24.1807 23.106 25.12 21.5L23.24 22L22.76 20L26.76 19C27.0172 18.9366 27.2892 18.9778 27.516 19.1147C27.7429 19.2515 27.9062 19.4728 27.97 19.73L28.97 23.73L27 24.24ZM5 13H5.24L9.24 12L8.76 10L6.88 10.47C7.82296 8.86963 9.15147 7.53071 10.7444 6.57528C12.3374 5.61986 14.1441 5.07831 16 5C18.6522 5 21.1957 6.05357 23.0711 7.92893C24.9464 9.8043 26 12.3478 26 15H28C28 11.8174 26.7357 8.76515 24.4853 6.51472C22.2348 4.26428 19.1826 3 16 3C13.8489 3.0819 11.7508 3.69104 9.89028 4.77388C8.02976 5.85671 6.46376 7.38007 5.33 9.21L5 7.76L3 8.24L4 12.24C4.05475 12.4619 4.18385 12.6583 4.36579 12.7966C4.54774 12.9349 4.77157 13.0067 5 13Z" fill="#52A447"/>
</svg>
