<svg width="25" height="25" viewBox="0 0 25 25" fill="none" xmlns="http://www.w3.org/2000/svg">
<path d="M8.75 18.125H8.80859M15.1562 11.7188L17.5 9.375M17.5 9.375L19.8438 11.7188M17.5 9.375V5.625M17.5 9.375L14.375 7.8125M17.5 9.375L20.625 7.8125M13.125 18.125C13.125 20.5412 11.1662 22.5 8.75 22.5C6.33375 22.5 4.375 20.5412 4.375 18.125C4.375 16.6383 5.11657 15.3248 6.25 14.5342V4.99837C6.25 3.61765 7.36929 2.5 8.75 2.5C10.1307 2.5 11.25 3.61929 11.25 5V14.5342C12.1451 15.3353 13.125 16.8293 13.125 18.125Z" stroke="#52A447" stroke-width="2" stroke-linecap="round" stroke-linejoin="round"/>
</svg>
